<?xml version="1.0" encoding="UTF-8" standalone="no"?>
<svg
   version="1.1"
   width="512px"
   height="512px"
   id="svg4"
   sodipodi:docname="toggled-dlna-off.svg"
   inkscape:version="1.2.2 (b0a8486541, 2022-12-01)"
   xml:space="preserve"
   xmlns:inkscape="http://www.inkscape.org/namespaces/inkscape"
   xmlns:sodipodi="http://sodipodi.sourceforge.net/DTD/sodipodi-0.dtd"
   xmlns="http://www.w3.org/2000/svg"
   xmlns:svg="http://www.w3.org/2000/svg"><defs
     id="defs8" /><sodipodi:namedview
     id="namedview6"
     pagecolor="#ffffff"
     bordercolor="#111111"
     borderopacity="1"
     inkscape:showpageshadow="0"
     inkscape:pageopacity="0"
     inkscape:pagecheckerboard="1"
     inkscape:deskcolor="#d1d1d1"
     showgrid="false"
     inkscape:zoom="1.7128907"
     inkscape:cx="167.84492"
     inkscape:cy="277.8928"
     inkscape:window-width="2560"
     inkscape:window-height="1380"
     inkscape:window-x="1920"
     inkscape:window-y="0"
     inkscape:window-maximized="1"
     inkscape:current-layer="svg4"
     showguides="false" /><path
     d="M 496.106,270.22991 H 277.75024 c -22.42227,0 -44.80187,10.43245 -57.43173,27.00913 v -0.36267 a 69.12288,69.12288 0 0 1 -56.08767,28.86519 69.35756,69.35756 0 0 1 0,-138.71511 c 23.14763,0 43.50048,11.43515 56.08767,28.86521 v -0.27736 c 12.62986,16.55536 35.00946,27.15847 57.43173,27.15847 H 493.84458 C 497.81274,242.6661 512.46935,240.74602 511.936,221.8439 493.07654,113.33806 386.5121,30.113255 257.56807,30.113255 c -79.38465,0 -150.34227,31.574649 -197.59757,81.134045 -7.59498,11.24314 0.29868,14.69928 7.46698,15.65932 h 140.97654 c 22.40093,0 44.80186,-10.62444 57.41039,-27.2438 v 0.38402 a 69.165549,69.165549 0 0 1 56.109,-28.907876 69.378891,69.378891 0 0 1 0,138.736436 69.12288,69.12288 0 0 1 -56.109,-28.90787 v 0.40535 C 253.21588,164.75352 230.81495,154.36376 208.41402,154.36376 H 54.38093 l 0.59736,0.064 c 0,0 -22.78495,-1.28006 -36.67353,18.3261 C 7.70165,189.86391 0,226.58009 0,256.04265 c 0,29.6119 4.22418,56.51436 18.49677,83.69416 12.0325,19.37147 36.48152,18.11275 36.48152,18.11275 l -0.89604,0.12801 h 154.31043 c 22.40094,0 44.80187,-10.45375 57.4104,-27.05178 v 0.40535 a 69.165549,69.165549 0 0 1 56.109,-28.90787 69.35756,69.35756 0 0 1 0,138.7151 69.144214,69.144214 0 0 1 -56.109,-28.88654 v 0.38402 c -12.60853,-16.61935 -35.00946,-27.2438 -57.4104,-27.2438 H 67.50148 c -6.99763,0.89603 -14.89129,4.22417 -8.08567,14.91261 47.27664,49.85808 118.5116,81.58209 198.15226,81.58209 129.15738,0 235.87116,-83.43816 254.43193,-192.20002 -0.0853,-15.21129 -10.43243,-18.7101 -15.894,-19.4568"
     id="path2"
     style="fill:#eeeeec;fill-opacity:1;stroke-width:21.3342" /><g
     id="g367"><path
       style="fill:#555555;fill-opacity:1;stroke:#ff0000;stroke-width:0;stroke-linecap:round;stroke-linejoin:round;stroke-dasharray:none;stroke-opacity:1;paint-order:stroke markers fill"
       d="M 384,256 A 128,128 0 0 0 256,384 128,128 0 0 0 384,512 128,128 0 0 0 512,384 128,128 0 0 0 384,256 Z"
       id="path4605-3" /><g
       style="fill:#eeeeec;fill-opacity:1"
       id="g247"
       transform="matrix(14.376987,0,0,14.376987,268.98398,274.37547)"><path
         d="M 10.706,3.294 A 12.6,12.6 0 0 0 8,3 C 5.259,3 2.723,3.882 0.663,5.379 A 0.485,0.485 0 0 0 0.615,6.115 0.52,0.52 0 0 0 1.283,6.165 11.45,11.45 0 0 1 8,4 Q 8.946,4 9.852,4.148 Z M 8,6 C 6.095,6 4.32,6.56 2.834,7.526 a 0.48,0.48 0 0 0 -0.063,0.745 0.525,0.525 0 0 0 0.652,0.065 8.45,8.45 0 0 1 3.51,-1.27 z m 2.596,1.404 0.785,-0.785 q 0.947,0.362 1.785,0.907 a 0.482,0.482 0 0 1 0.063,0.745 0.525,0.525 0 0 1 -0.652,0.065 8.5,8.5 0 0 0 -1.98,-0.932 z M 8,10 8.933,9.067 a 6.5,6.5 0 0 1 2.013,0.637 c 0.285,0.145 0.326,0.524 0.1,0.75 l -0.015,0.015 A 0.53,0.53 0 0 1 10.42,10.559 5.5,5.5 0 0 0 8,10 m 4.905,-4.905 0.747,-0.747 q 0.886,0.451 1.685,1.03 a 0.485,0.485 0 0 1 0.047,0.737 0.52,0.52 0 0 1 -0.668,0.05 11.5,11.5 0 0 0 -1.811,-1.07 M 9.02,11.78 c 0.238,0.14 0.236,0.464 0.04,0.66 l -0.707,0.706 a 0.5,0.5 0 0 1 -0.707,0 L 6.939,12.439 C 6.744,12.244 6.742,11.921 6.979,11.779 A 2,2 0 0 1 8,11.5 c 0.374,0 0.723,0.102 1.021,0.28 z m 4.355,-9.905 a 0.53033009,0.53033009 0 0 1 0.75,0.75 l -10.75,10.75 a 0.53033009,0.53033009 0 0 1 -0.75,-0.75 z"
         id="path238"
         style="fill:#eeeeec;fill-opacity:1" /></g><circle
       style="color:#eeeeec;opacity:0.3;fill:#ff0000;stroke:#d2b7b7;stroke-width:0;paint-order:stroke markers fill;fill-opacity:1"
       id="path477"
       cx="384"
       cy="384"
       r="128" /></g></svg>
