<?xml version="1.0" encoding="UTF-8" standalone="no"?>
<svg
   version="1.1"
   width="512px"
   height="512px"
   id="svg4"
   sodipodi:docname="toggled-ssh-off.svg"
   inkscape:version="1.2.2 (b0a8486541, 2022-12-01)"
   xmlns:inkscape="http://www.inkscape.org/namespaces/inkscape"
   xmlns:sodipodi="http://sodipodi.sourceforge.net/DTD/sodipodi-0.dtd"
   xmlns="http://www.w3.org/2000/svg"
   xmlns:svg="http://www.w3.org/2000/svg">
  <defs
     id="defs8" />
  <sodipodi:namedview
     id="namedview6"
     pagecolor="#ffffff"
     bordercolor="#111111"
     borderopacity="1"
     inkscape:showpageshadow="0"
     inkscape:pageopacity="0"
     inkscape:pagecheckerboard="1"
     inkscape:deskcolor="#d1d1d1"
     showgrid="false"
     inkscape:zoom="0.7071068"
     inkscape:cx="403.05085"
     inkscape:cy="117.37972"
     inkscape:window-width="2560"
     inkscape:window-height="1380"
     inkscape:window-x="1920"
     inkscape:window-y="0"
     inkscape:window-maximized="1"
     inkscape:current-layer="svg4" />
  <path
     id="path2"
     style="fill:#eeeeec;fill-opacity:1;stroke-width:0.954703"
     d="M 36.572266,56 C 16.372386,56 0,70.922641 0,89.333984 V 422.66602 C 0,441.07733 16.372386,456 36.572266,456 H 475.42773 C 495.62763,456 512,441.07733 512,422.66602 V 89.333984 C 512,70.922641 495.62763,56 475.42773,56 Z M 418.9043,85.947266 c 23.95912,0 43.45703,19.497894 43.45703,43.457034 v 20.58593 h 6.86133 c 7.57657,0 13.72461,6.14804 13.72461,13.72461 v 54.89258 c 0,7.57657 -6.14804,13.72461 -13.72461,13.72461 H 368.58398 c -7.57657,0 -13.7246,-6.14804 -13.7246,-13.72461 v -54.89258 c 0,-7.57657 6.14803,-13.72461 13.7246,-13.72461 h 6.86133 V 129.4043 c 0,-23.95914 19.49985,-43.457034 43.45899,-43.457034 z m 0,22.873044 c -11.35057,0 -20.58594,9.23342 -20.58594,20.58399 v 20.58593 h 41.16992 V 129.4043 c 0,-11.35057 -9.23342,-20.58399 -20.58398,-20.58399 z M 92.642578,124.32422 237.10938,256 92.642578,387.67578 44.488281,343.7832 140.79883,256 44.488281,168.21484 Z M 237.10938,343.7832 h 192.62109 v 43.89258 H 237.10938 Z" />
  <circle
     style="color:#eeeeec;opacity:0.6;fill:#ff0000;fill-opacity:1;stroke:#d2b7b7;stroke-width:0;paint-order:stroke markers fill"
     id="path477"
     cx="384"
     cy="384"
     r="128" />
</svg>
