<?xml version="1.0" encoding="UTF-8" standalone="no"?>
<svg
   version="1.1"
   width="512px"
   height="512px"
   id="svg4"
   sodipodi:docname="toggled-dlna-on.svg"
   inkscape:version="1.2.2 (b0a8486541, 2022-12-01)"
   xml:space="preserve"
   xmlns:inkscape="http://www.inkscape.org/namespaces/inkscape"
   xmlns:sodipodi="http://sodipodi.sourceforge.net/DTD/sodipodi-0.dtd"
   xmlns="http://www.w3.org/2000/svg"
   xmlns:svg="http://www.w3.org/2000/svg"><defs
     id="defs8" /><sodipodi:namedview
     id="namedview6"
     pagecolor="#ffffff"
     bordercolor="#111111"
     borderopacity="1"
     inkscape:showpageshadow="0"
     inkscape:pageopacity="0"
     inkscape:pagecheckerboard="1"
     inkscape:deskcolor="#d1d1d1"
     showgrid="false"
     inkscape:zoom="1.7128907"
     inkscape:cx="205.50056"
     inkscape:cy="277.8928"
     inkscape:window-width="2560"
     inkscape:window-height="1380"
     inkscape:window-x="1920"
     inkscape:window-y="0"
     inkscape:window-maximized="1"
     inkscape:current-layer="svg4"
     showguides="false" /><path
     d="M 496.106,270.22991 H 277.75024 c -22.42227,0 -44.80187,10.43245 -57.43173,27.00913 v -0.36267 a 69.12288,69.12288 0 0 1 -56.08767,28.86519 69.35756,69.35756 0 0 1 0,-138.71511 c 23.14763,0 43.50048,11.43515 56.08767,28.86521 v -0.27736 c 12.62986,16.55536 35.00946,27.15847 57.43173,27.15847 H 493.84458 C 497.81274,242.6661 512.46935,240.74602 511.936,221.8439 493.07654,113.33806 386.5121,30.113255 257.56807,30.113255 c -79.38465,0 -150.34227,31.574649 -197.59757,81.134045 -7.59498,11.24314 0.29868,14.69928 7.46698,15.65932 h 140.97654 c 22.40093,0 44.80186,-10.62444 57.41039,-27.2438 v 0.38402 a 69.165549,69.165549 0 0 1 56.109,-28.907876 69.378891,69.378891 0 0 1 0,138.736436 69.12288,69.12288 0 0 1 -56.109,-28.90787 v 0.40535 C 253.21588,164.75352 230.81495,154.36376 208.41402,154.36376 H 54.38093 l 0.59736,0.064 c 0,0 -22.78495,-1.28006 -36.67353,18.3261 C 7.70165,189.86391 0,226.58009 0,256.04265 c 0,29.6119 4.22418,56.51436 18.49677,83.69416 12.0325,19.37147 36.48152,18.11275 36.48152,18.11275 l -0.89604,0.12801 h 154.31043 c 22.40094,0 44.80187,-10.45375 57.4104,-27.05178 v 0.40535 a 69.165549,69.165549 0 0 1 56.109,-28.90787 69.35756,69.35756 0 0 1 0,138.7151 69.144214,69.144214 0 0 1 -56.109,-28.88654 v 0.38402 c -12.60853,-16.61935 -35.00946,-27.2438 -57.4104,-27.2438 H 67.50148 c -6.99763,0.89603 -14.89129,4.22417 -8.08567,14.91261 47.27664,49.85808 118.5116,81.58209 198.15226,81.58209 129.15738,0 235.87116,-83.43816 254.43193,-192.20002 -0.0853,-15.21129 -10.43243,-18.7101 -15.894,-19.4568"
     id="path2"
     style="fill:#eeeeec;fill-opacity:1;stroke-width:21.3342" /><g
     id="g4950"><path
       style="fill:#555555;fill-opacity:1;stroke:#ff0000;stroke-width:0;stroke-linecap:round;stroke-linejoin:round;stroke-dasharray:none;stroke-opacity:1;paint-order:stroke markers fill"
       d="M 384,256 A 128,128 0 0 0 256,384 128,128 0 0 0 384,512 128,128 0 0 0 512,384 128,128 0 0 0 384,256 Z"
       id="path4605-3" /><g
       style="fill:#eeeeec;fill-opacity:1"
       id="g877"
       transform="matrix(14.377568,0,0,14.377568,268.98352,274.87763)"><path
         d="M 15.384,6.115 A 0.485,0.485 0 0 0 15.337,5.379 12.44,12.44 0 0 0 8,3 C 5.259,3 2.723,3.882 0.663,5.379 A 0.485,0.485 0 0 0 0.615,6.115 0.52,0.52 0 0 0 1.283,6.165 11.45,11.45 0 0 1 8,4 c 2.507,0 4.827,0.802 6.716,2.164 0.205,0.148 0.49,0.13 0.668,-0.049"
         id="path865"
         style="fill:#eeeeec;fill-opacity:1" /><path
         d="M 13.229,8.271 A 0.482,0.482 0 0 0 13.166,7.526 9.46,9.46 0 0 0 8,6 C 6.095,6 4.32,6.56 2.834,7.526 A 0.48,0.48 0 0 0 2.771,8.271 0.525,0.525 0 0 0 3.423,8.336 8.46,8.46 0 0 1 8,7 8.46,8.46 0 0 1 12.576,8.336 c 0.206,0.132 0.48,0.108 0.653,-0.065 m -2.183,2.183 c 0.226,-0.226 0.185,-0.605 -0.1,-0.75 A 6.5,6.5 0 0 0 8,9 C 6.94,9 5.938,9.254 5.054,9.704 c -0.285,0.145 -0.326,0.524 -0.1,0.75 l 0.015,0.015 c 0.16,0.16 0.407,0.19 0.611,0.09 A 5.5,5.5 0 0 1 8,10 c 0.868,0 1.69,0.201 2.42,0.56 0.203,0.1 0.45,0.07 0.61,-0.091 z M 9.06,12.44 C 9.256,12.244 9.258,11.92 9.02,11.78 A 2,2 0 0 0 8,11.5 2,2 0 0 0 6.98,11.78 c -0.238,0.14 -0.236,0.464 -0.04,0.66 l 0.706,0.706 a 0.5,0.5 0 0 0 0.707,0 L 9.06,12.439 Z"
         id="path867"
         style="fill:#eeeeec;fill-opacity:1" /></g><circle
       style="color:#eeeeec;opacity:0.3;fill:#00ff00;fill-opacity:1;stroke:#d2b7b7;stroke-width:0;paint-order:stroke markers fill"
       id="path477"
       cx="384"
       cy="384"
       r="128" /></g></svg>
