<?xml version="1.0" encoding="UTF-8" standalone="no"?>
<svg
   version="1.1"
   width="512px"
   height="512px"
   id="svg4"
   sodipodi:docname="toggled-mqtt-off.svg"
   inkscape:version="1.2.2 (b0a8486541, 2022-12-01)"
   xmlns:inkscape="http://www.inkscape.org/namespaces/inkscape"
   xmlns:sodipodi="http://sodipodi.sourceforge.net/DTD/sodipodi-0.dtd"
   xmlns="http://www.w3.org/2000/svg"
   xmlns:svg="http://www.w3.org/2000/svg">
  <defs
     id="defs8" />
  <sodipodi:namedview
     id="namedview6"
     pagecolor="#ffffff"
     bordercolor="#111111"
     borderopacity="1"
     inkscape:showpageshadow="0"
     inkscape:pageopacity="0"
     inkscape:pagecheckerboard="1"
     inkscape:deskcolor="#d1d1d1"
     showgrid="false"
     inkscape:zoom="1.2111966"
     inkscape:cx="101.96528"
     inkscape:cy="359.14896"
     inkscape:window-width="1920"
     inkscape:window-height="1056"
     inkscape:window-x="0"
     inkscape:window-y="309"
     inkscape:window-maximized="1"
     inkscape:current-layer="svg4" />
  <path
     d="M 227.34928,512 H 25.74932 A 25.855992,25.867856 0 0 1 0,486.2602 V 290.3304 h 1.51466 c 123.39198,0 224.08528,99.24548 225.83462,221.6696 z m 162.26128,0 H 303.31724 C 301.54658,346.63354 166.29328,212.83355 0,212.08654 v -83.32352 h 1.51466 c 212.97062,0 386.58124,171.68403 388.0959,383.23698 z m 96.63998,0 H 465.5572 C 464.0852,257.52603 255.89326,51.26617 0,50.51916 V 25.76114 C 0,11.63201 11.60534,0.02134 25.74932,0.02134 h 162.98662 c 146.9013,53.01631 264.7466,166.11346 323.26392,309.51787 V 486.49499 C 511.99986,500.64546 500.39452,512 486.25054,512 Z M 356.5439,0.02134 h 129.96264 a 25.38666,25.398307 0 0 1 25.49332,25.48367 v 126.2232 C 492.58654,125.22007 468.35188,95.168963 444.62922,71.435407 417.87722,44.92726 386.60256,20.95895 356.56524,0 Z"
     id="path4"
     style="fill:#eeeeec;fill-opacity:1;stroke-width:21.3383" />
  <g
     id="g367">
    <path
       style="fill:#555555;fill-opacity:1;stroke:#ff0000;stroke-width:0;stroke-linecap:round;stroke-linejoin:round;stroke-dasharray:none;stroke-opacity:1;paint-order:stroke markers fill"
       d="M 384,256 A 128,128 0 0 0 256,384 128,128 0 0 0 384,512 128,128 0 0 0 512,384 128,128 0 0 0 384,256 Z"
       id="path4605-3" />
    <g
       style="fill:#eeeeec;fill-opacity:1"
       id="g247"
       transform="matrix(14.376987,0,0,14.376987,268.98398,274.37547)">
      <path
         d="M 10.706,3.294 A 12.6,12.6 0 0 0 8,3 C 5.259,3 2.723,3.882 0.663,5.379 A 0.485,0.485 0 0 0 0.615,6.115 0.52,0.52 0 0 0 1.283,6.165 11.45,11.45 0 0 1 8,4 Q 8.946,4 9.852,4.148 Z M 8,6 C 6.095,6 4.32,6.56 2.834,7.526 a 0.48,0.48 0 0 0 -0.063,0.745 0.525,0.525 0 0 0 0.652,0.065 8.45,8.45 0 0 1 3.51,-1.27 z m 2.596,1.404 0.785,-0.785 q 0.947,0.362 1.785,0.907 a 0.482,0.482 0 0 1 0.063,0.745 0.525,0.525 0 0 1 -0.652,0.065 8.5,8.5 0 0 0 -1.98,-0.932 z M 8,10 8.933,9.067 a 6.5,6.5 0 0 1 2.013,0.637 c 0.285,0.145 0.326,0.524 0.1,0.75 l -0.015,0.015 A 0.53,0.53 0 0 1 10.42,10.559 5.5,5.5 0 0 0 8,10 m 4.905,-4.905 0.747,-0.747 q 0.886,0.451 1.685,1.03 a 0.485,0.485 0 0 1 0.047,0.737 0.52,0.52 0 0 1 -0.668,0.05 11.5,11.5 0 0 0 -1.811,-1.07 M 9.02,11.78 c 0.238,0.14 0.236,0.464 0.04,0.66 l -0.707,0.706 a 0.5,0.5 0 0 1 -0.707,0 L 6.939,12.439 C 6.744,12.244 6.742,11.921 6.979,11.779 A 2,2 0 0 1 8,11.5 c 0.374,0 0.723,0.102 1.021,0.28 z m 4.355,-9.905 a 0.53033009,0.53033009 0 0 1 0.75,0.75 l -10.75,10.75 a 0.53033009,0.53033009 0 0 1 -0.75,-0.75 z"
         id="path238"
         style="fill:#eeeeec;fill-opacity:1" />
    </g>
    <circle
       style="color:#eeeeec;opacity:0.3;fill:#ff0000;fill-opacity:1;stroke:#d2b7b7;stroke-width:0;paint-order:stroke markers fill"
       id="path477"
       cx="384"
       cy="384"
       r="128" />
  </g>
</svg>
