<?xml version="1.0" encoding="UTF-8" standalone="no"?>
<svg
   height="16px"
   viewBox="0 0 16 16"
   width="16px"
   version="1.1"
   id="svg4"
   sodipodi:docname="toggled-vpn-off.svg"
   inkscape:version="1.2.2 (b0a8486541, 2022-12-01)"
   xmlns:inkscape="http://www.inkscape.org/namespaces/inkscape"
   xmlns:sodipodi="http://sodipodi.sourceforge.net/DTD/sodipodi-0.dtd"
   xmlns="http://www.w3.org/2000/svg"
   xmlns:svg="http://www.w3.org/2000/svg">
  <defs
     id="defs8" />
  <sodipodi:namedview
     id="namedview6"
     pagecolor="#ffffff"
     bordercolor="#111111"
     borderopacity="1"
     inkscape:showpageshadow="0"
     inkscape:pageopacity="0"
     inkscape:pagecheckerboard="1"
     inkscape:deskcolor="#d1d1d1"
     showgrid="false"
     inkscape:zoom="26.21875"
     inkscape:cx="4.4624553"
     inkscape:cy="8.1811681"
     inkscape:window-width="1920"
     inkscape:window-height="1027"
     inkscape:window-x="0"
     inkscape:window-y="29"
     inkscape:window-maximized="1"
     inkscape:current-layer="svg4" />
  <path
     d="m 8 0 s -0.707031 -0.015625 -1.449219 0.355469 c -0.738281 0.371093 -1.550781 1.3125 -1.550781 2.644531 v 1 h 2 v -1 c 0 -0.667969 0.1875 -0.726562 0.449219 -0.855469 c 0.257812 -0.128906 0.550781 -0.144531 0.550781 -0.144531 s 0.292969 0.015625 0.550781 0.144531 c 0.261719 0.128907 0.449219 0.1875 0.449219 0.855469 v 3 h -5 v 6 h 3 v 2 h -5 v 2 h 12 v -2 h -5 v -2 h 3 v -6 h -1 v -3 c 0 -1.332031 -0.8125 -2.273438 -1.550781 -2.644531 c -0.742188 -0.371094 -1.449219 -0.355469 -1.449219 -0.355469 z m 0 0"
     fill="#2e3436"
     id="path2"
     style="fill:#eeeeec;fill-opacity:1" />
  <path
     style="fill:#555555;fill-opacity:1;stroke:#ff0000;stroke-width:0;stroke-linecap:round;stroke-linejoin:round;stroke-dasharray:none;stroke-opacity:1;paint-order:stroke markers fill"
     d="m 9.1715744,9.1715725 a 4.0000006,4.0000006 0 0 0 0,5.6568555 4.0000006,4.0000006 0 0 0 5.6568546,0 4.0000006,4.0000006 0 0 0 0,-5.6568555 4.0000006,4.0000006 0 0 0 -5.6568546,0 z"
     id="path4605-3" />
  <path
     d="m 13.257956,9.085592 c -0.913198,3e-7 -1.656453,0.7432544 -1.656453,1.656453 2.5e-4,0.181291 0.04625,0.357271 0.104607,0.528426 l -2.2727699,2.27277 a 0.13805158,0.13805158 0 0 0 -0.040441,0.0976 v 0.552151 a 0.13805158,0.13805158 0 0 0 0.138038,0.138038 l 0.8282269,10e-7 a 0.13805158,0.13805158 0 0 0 0.0976,-0.04044 l 0.235635,-0.235635 h 0.494994 a 0.13805158,0.13805158 0 0 0 0.138038,-0.138038 v -0.414113 h 0.414113 a 0.13805158,0.13805158 0 0 0 0.138038,-0.138038 v -0.494995 l 0.664846,-0.664846 c 0.224805,0.109793 0.463772,0.193027 0.714992,0.193577 a 0.13805158,0.13805158 0 0 0 5.39e-4,0 c 0.913199,-10e-7 1.656454,-0.743255 1.656454,-1.656454 0,-0.9131988 -0.743254,-1.656453 -1.656454,-1.6564525 z m 10e-7,0.2760756 c 0.763996,2e-7 1.380378,0.6163817 1.380377,1.3803774 10e-7,0.763813 -0.616097,1.380081 -1.379838,1.380378 -0.242857,-5.25e-4 -0.481354,-0.06497 -0.691267,-0.187105 a 0.13805158,0.13805158 0 0 0 -0.167155,0.02157 l -0.75813,0.758128 a 0.13805158,0.13805158 0 0 0 -0.04044,0.0976 v 0.414113 H 11.18739 a 0.13805158,0.13805158 0 0 0 -0.138038,0.138038 v 0.414113 l -0.414113,1e-6 a 0.13805158,0.13805158 0 0 0 -0.0976,0.04044 l -0.235635,0.235635 H 9.6689712 v -0.356957 l 2.2824768,-2.282476 a 0.13805158,0.13805158 0 0 0 0.0302,-0.149901 c -0.06837,-0.166086 -0.103817,-0.343964 -0.104068,-0.523573 0,-0.7639957 0.616381,-1.380377 1.380378,-1.3803774 z m 0.276075,0.2760757 c -0.303309,0 -0.552151,0.2488413 -0.552151,0.5521517 0,0.303309 0.248841,0.55215 0.552152,0.552151 0.303309,-1e-6 0.55215,-0.248842 0.55215,-0.552152 0,-0.3033094 -0.248841,-0.5521507 -0.552151,-0.5521507 z m 0,0.2760757 c 0.154108,0 0.276076,0.121968 0.276075,0.276075 0,0.154108 -0.121967,0.276076 -0.276075,0.276076 -0.154107,0 -0.276075,-0.121968 -0.276075,-0.276076 0,-0.154107 0.121968,-0.276075 0.276075,-0.276075 z"
     style="fill:#eeeeec;fill-opacity:1;stroke:none;stroke-width:0px"
     id="path3055" />
  <circle
     style="color:#eeeeec;opacity:0.3;fill:#ff0000;fill-opacity:1;stroke:#d2b7b7;stroke-width:0;paint-order:stroke markers fill"
     id="path477"
     cx="1.357645e-06"
     cy="16.970564"
     r="4.0000005"
     transform="rotate(-45)" />
</svg>
