<?xml version="1.0" encoding="UTF-8" standalone="no"?>
<svg
   height="16px"
   viewBox="0 0 16 16"
   width="16px"
   version="1.1"
   id="svg4"
   sodipodi:docname="toggled-vpn-on.svg"
   inkscape:version="1.2.2 (b0a8486541, 2022-12-01)"
   xmlns:inkscape="http://www.inkscape.org/namespaces/inkscape"
   xmlns:sodipodi="http://sodipodi.sourceforge.net/DTD/sodipodi-0.dtd"
   xmlns="http://www.w3.org/2000/svg"
   xmlns:svg="http://www.w3.org/2000/svg">
  <defs
     id="defs8" />
  <sodipodi:namedview
     id="namedview6"
     pagecolor="#ffffff"
     bordercolor="#111111"
     borderopacity="1"
     inkscape:showpageshadow="0"
     inkscape:pageopacity="0"
     inkscape:pagecheckerboard="1"
     inkscape:deskcolor="#d1d1d1"
     showgrid="false"
     inkscape:zoom="26.21875"
     inkscape:cx="13.921335"
     inkscape:cy="14.398093"
     inkscape:window-width="1920"
     inkscape:window-height="1027"
     inkscape:window-x="0"
     inkscape:window-y="29"
     inkscape:window-maximized="1"
     inkscape:current-layer="svg4" />
  <path
     d="M 7.917969,2 C 6.300781,2 5,3.300781 5,4.917969 V 6 H 4 v 6 h 3 v 2 H 2 v 2 H 14 V 14 H 9 v -2 h 3 V 6 H 11 V 4.917969 C 11,3.300781 9.699219,2 8.082031,2 Z M 8,4 C 8.554688,4 9,4.445312 9,5 V 6 H 7 V 5 C 7,4.445312 7.445312,4 8,4 Z m 0,0"
     fill="#2e3436"
     id="path2"
     style="fill:#eeeeec;fill-opacity:1" />
  <path
     style="fill:#555555;fill-opacity:1;stroke:#ff0000;stroke-width:0;stroke-linecap:round;stroke-linejoin:round;stroke-dasharray:none;stroke-opacity:1;paint-order:stroke markers fill"
     d="m 11.999999,7.9999992 a 4,4 0 0 0 -3.9999997,3.9999998 4,4 0 0 0 3.9999997,4 4,4 0 0 0 4,-4 4,4 0 0 0 -4,-3.9999998 z"
     id="path4605-3" />
  <path
     d="m 14.950305,10.82871 c -0.645729,-0.645729 -1.696849,-0.645729 -2.342579,0 -0.128014,0.128368 -0.219923,0.285333 -0.299685,0.447622 H 9.093859 a 0.13805156,0.13805156 0 0 0 -0.097608,0.04041 l -0.3904297,0.39043 a 0.13805156,0.13805156 0 0 0 0,0.195215 l 0.5856447,0.585645 a 0.13805156,0.13805156 0 0 0 0.097607,0.04041 h 0.3332378 l 0.3500141,0.350014 a 0.13805156,0.13805156 0 0 0 0.1952151,0 l 0.292822,-0.292822 0.292822,0.292822 a 0.13805156,0.13805156 0 0 0 0.195215,0 l 0.350014,-0.350014 h 0.940234 c 0.08133,0.236596 0.191447,0.464427 0.368697,0.642455 a 0.13805156,0.13805156 0 0 0 3.81e-4,3.81e-4 c 0.64573,0.645729 1.69685,0.645729 2.342579,0 0.645729,-0.645729 0.645729,-1.696849 -10e-7,-2.342578 z m -0.195215,0.195215 c 0.540227,0.540227 0.540227,1.411922 0,1.952149 -0.540097,0.540097 -1.411511,0.540218 -1.951768,3.81e-4 -0.171355,-0.172097 -0.294426,-0.386311 -0.356495,-0.621103 a 0.13805156,0.13805156 0 0 0 -0.133449,-0.102944 l -1.072156,-2e-6 a 0.13805156,0.13805156 0 0 0 -0.09761,0.04042 l -0.292822,0.292822 -0.292823,-0.292823 a 0.13805156,0.13805156 0 0 0 -0.195215,0 L 10.06993,12.585648 9.7771076,12.292826 a 0.13805156,0.13805156 0 0 0 -0.097607,-0.04042 H 9.3462656 L 8.8986437,11.804785 9.1510506,11.552378 h 3.2279084 a 0.13805156,0.13805156 0 0 0 0.127348,-0.08464 c 0.0691,-0.165786 0.16981,-0.316629 0.296634,-0.443809 0.540227,-0.540227 1.411922,-0.540227 1.952149,0 z m 0,0.39043 c -0.214473,-0.214472 -0.566387,-0.214472 -0.780859,0 -0.214473,0.214472 -0.214473,0.566387 0,0.780859 0.214472,0.214472 0.566386,0.214472 0.780859,0 0.214472,-0.214472 0.214472,-0.566387 0,-0.780859 z m -0.195215,0.195215 c 0.10897,0.10897 0.10897,0.281459 0,0.390429 -0.108971,0.10897 -0.281459,0.108971 -0.39043,0 -0.10897,-0.10897 -0.10897,-0.281459 0,-0.39043 0.108971,-0.10897 0.281459,-0.10897 0.39043,10e-7 z"
     style="fill:#eeeeec;fill-opacity:1;stroke:none;stroke-width:0px"
     id="path3055" />
  <circle
     style="color:#eeeeec;opacity:0.3;fill:#00ff00;fill-opacity:1;stroke:#d2b7b7;stroke-width:0;paint-order:stroke markers fill"
     id="path477"
     cx="11.999999"
     cy="11.999999"
     r="4" />
</svg>
