<?xml version="1.0" encoding="UTF-8" standalone="no"?>
<svg
   version="1.1"
   width="512px"
   height="512px"
   id="svg4"
   sodipodi:docname="toggled-ftp.svg"
   inkscape:version="1.2.2 (b0a8486541, 2022-12-01)"
   xmlns:inkscape="http://www.inkscape.org/namespaces/inkscape"
   xmlns:sodipodi="http://sodipodi.sourceforge.net/DTD/sodipodi-0.dtd"
   xmlns="http://www.w3.org/2000/svg"
   xmlns:svg="http://www.w3.org/2000/svg">
  <defs
     id="defs8" />
  <sodipodi:namedview
     id="namedview6"
     pagecolor="#ffffff"
     bordercolor="#111111"
     borderopacity="1"
     inkscape:showpageshadow="0"
     inkscape:pageopacity="0"
     inkscape:pagecheckerboard="1"
     inkscape:deskcolor="#d1d1d1"
     showgrid="false"
     inkscape:zoom="0.87158203"
     inkscape:cx="-79.740056"
     inkscape:cy="262.74062"
     inkscape:window-width="2560"
     inkscape:window-height="1380"
     inkscape:window-x="1920"
     inkscape:window-y="0"
     inkscape:window-maximized="1"
     inkscape:current-layer="svg4" />
  <path
     d="M 448.00002,383.99998 H 288 v 64 h 64 q 13,0 22.5,9.5 9.5,9.5 9.5,22.75 0,13.25 -9.5,22.50002 Q 365,512 352,512 H 160 q -13.5,0 -22.75,-9.25 -9.25,-9.25002 -9.25,-22.50002 0,-13.25 9.5,-22.75 9.5,-9.5 22.5,-9.5 h 64 v -64 H 64 q -26.5,0 -45.25,-18.74998 Q 0,346.5 0,320 V 128 Q 0,115 9.5,105.5 19,96 32,96 H 272 L 295,54 Q 298.5,44.5 309,38.25 319.5,32 331,32 h 120.00002 q 12,0 22.5,6.25 10.5,6.25 14,15.75 L 512,96 v 224 q 0,26.5 -18.74998,45.25 -18.75,18.74998 -45.25,18.74998 z M 221,237 153.5,164.5 q -4,-4.5 -9.5,-4.5 -5.5,0 -9.5,4.5 L 67,237 q -4,4.5 -2.5,11.75 Q 66,256 70,256 h 26 v 48 q 0,6.5 4.75,11.25 Q 105.5,320 112,320 h 64 q 6.5,0 11.25,-4.75 Q 192,310.5 192,304 v -48 h 26 q 4,0 5.5,-7.25 Q 225,241.5 221,237 Z m 221.00001,-13 h -26 v -48 q 0,-6.5 -4.75,-11.25 -4.75,-4.75 -11.25,-4.75 H 336 q -6.5,0 -11.25,4.75 Q 320,169.5 320,176 v 48 h -26 q -4,0 -5.5,7.25 -1.5,7.25 2.5,11.75 l 67.5,72.5 q 4,4.5 9.5,4.5 5.5,0 9.5,-4.5 L 445.00002,243 q 4,-4.5 2.5,-11.75 -1.5,-7.25 -5.50001,-7.25 z M 23,22 Q 26.5,12.5 37,6.25 47.5,0 59,0 H 179 Q 191,0 201.5,6.25 212,12.5 216,22 l 24,42 H 0 Z"
     fill="currentColor"
     id="path2"
     style="stroke-width:0.5;fill:#eeeeec;fill-opacity:1" />
</svg>
