<?xml version="1.0" encoding="UTF-8" standalone="no"?>
<svg
   version="1.1"
   width="512px"
   height="512px"
   id="svg4"
   sodipodi:docname="toggled-dlna.svg"
   inkscape:version="1.2.2 (b0a8486541, 2022-12-01)"
   xmlns:inkscape="http://www.inkscape.org/namespaces/inkscape"
   xmlns:sodipodi="http://sodipodi.sourceforge.net/DTD/sodipodi-0.dtd"
   xmlns="http://www.w3.org/2000/svg"
   xmlns:svg="http://www.w3.org/2000/svg">
  <defs
     id="defs8" />
  <sodipodi:namedview
     id="namedview6"
     pagecolor="#ffffff"
     bordercolor="#111111"
     borderopacity="1"
     inkscape:showpageshadow="0"
     inkscape:pageopacity="0"
     inkscape:pagecheckerboard="1"
     inkscape:deskcolor="#d1d1d1"
     showgrid="false"
     inkscape:zoom="1.2111966"
     inkscape:cx="116.4138"
     inkscape:cy="344.28762"
     inkscape:window-width="1920"
     inkscape:window-height="1056"
     inkscape:window-x="0"
     inkscape:window-y="309"
     inkscape:window-maximized="1"
     inkscape:current-layer="svg4"
     showguides="false" />
  <path
     d="M 496.106,270.22992 H 277.75024 c -22.42227,0 -44.80187,10.43245 -57.43173,27.00913 v -0.36267 a 69.12288,69.12288 0 0 1 -56.08767,28.86519 69.35756,69.35756 0 0 1 0,-138.71511 c 23.14763,0 43.50048,11.43515 56.08767,28.86521 v -0.27736 c 12.62986,16.55536 35.00946,27.15847 57.43173,27.15847 h 216.09434 c 3.96816,-0.10667 18.62477,-2.02675 18.09142,-20.92887 C 493.07654,113.33806 386.5121,30.113255 257.56807,30.113255 c -79.38465,0 -150.34227,31.574649 -197.597571,81.134045 -7.594983,11.24314 0.298679,14.69928 7.466978,15.65932 H 208.41402 c 22.40093,0 44.80186,-10.62444 57.41039,-27.2438 v 0.38402 a 69.165549,69.165549 0 0 1 56.109,-28.907876 69.378891,69.378891 0 0 1 0,138.736446 69.12288,69.12288 0 0 1 -56.109,-28.90787 v 0.40535 C 253.21588,164.75353 230.81495,154.36376 208.41402,154.36376 H 54.380933 l 0.597358,0.064 c 0,0 -22.78495,-1.28006 -36.673528,18.3261 C 7.7016542,189.86392 0,226.5801 0,256.04266 c 0,29.6119 4.224176,56.51436 18.496771,83.69416 12.032501,19.37147 36.48152,18.11275 36.48152,18.11275 l -0.896038,0.12801 H 208.39268 c 22.40094,0 44.80187,-10.45376 57.4104,-27.05179 v 0.40535 a 69.165549,69.165549 0 0 1 56.109,-28.90787 69.35756,69.35756 0 0 1 0,138.71511 69.144214,69.144214 0 0 1 -56.109,-28.88654 v 0.38402 c -12.60853,-16.61935 -35.00946,-27.2438 -57.4104,-27.2438 H 67.501479 c -6.997625,0.89603 -14.891287,4.22417 -8.08567,14.91261 47.276641,49.85808 118.511601,81.58208 198.152261,81.58208 129.15738,0 235.87116,-83.43815 254.43193,-192.20002 -0.0853,-15.21129 -10.43243,-18.7101 -15.894,-19.4568"
     id="path2"
     style="fill:#eeeeec;fill-opacity:1;stroke-width:21.3342" />
</svg>
