<?xml version="1.0" encoding="UTF-8" standalone="no"?>
<svg
   version="1.1"
   width="512px"
   height="512px"
   id="svg4"
   sodipodi:docname="toggled-ftp-on.svg"
   inkscape:version="1.2.2 (b0a8486541, 2022-12-01)"
   xmlns:inkscape="http://www.inkscape.org/namespaces/inkscape"
   xmlns:sodipodi="http://sodipodi.sourceforge.net/DTD/sodipodi-0.dtd"
   xmlns="http://www.w3.org/2000/svg"
   xmlns:svg="http://www.w3.org/2000/svg">
  <defs
     id="defs8" />
  <sodipodi:namedview
     id="namedview6"
     pagecolor="#ffffff"
     bordercolor="#111111"
     borderopacity="1"
     inkscape:showpageshadow="0"
     inkscape:pageopacity="0"
     inkscape:pagecheckerboard="1"
     inkscape:deskcolor="#d1d1d1"
     showgrid="false"
     inkscape:zoom="0.87158203"
     inkscape:cx="458.36191"
     inkscape:cy="283.39272"
     inkscape:window-width="1920"
     inkscape:window-height="1056"
     inkscape:window-x="0"
     inkscape:window-y="309"
     inkscape:window-maximized="1"
     inkscape:current-layer="svg4" />
  <path
     d="M 448.00002,383.99998 H 288 v 64 h 64 q 13,0 22.5,9.5 9.5,9.5 9.5,22.75 0,13.25 -9.5,22.50002 Q 365,512 352,512 H 160 q -13.5,0 -22.75,-9.25 -9.25,-9.25002 -9.25,-22.50002 0,-13.25 9.5,-22.75 9.5,-9.5 22.5,-9.5 h 64 v -64 H 64 q -26.5,0 -45.25,-18.74998 Q 0,346.5 0,320 V 128 Q 0,115 9.5,105.5 19,96 32,96 H 272 L 295,54 Q 298.5,44.5 309,38.25 319.5,32 331,32 h 120.00002 q 12,0 22.5,6.25 10.5,6.25 14,15.75 L 512,96 v 224 q 0,26.5 -18.74998,45.25 -18.75,18.74998 -45.25,18.74998 z M 221,237 153.5,164.5 q -4,-4.5 -9.5,-4.5 -5.5,0 -9.5,4.5 L 67,237 q -4,4.5 -2.5,11.75 Q 66,256 70,256 h 26 v 48 q 0,6.5 4.75,11.25 Q 105.5,320 112,320 h 64 q 6.5,0 11.25,-4.75 Q 192,310.5 192,304 v -48 h 26 q 4,0 5.5,-7.25 Q 225,241.5 221,237 Z m 221.00001,-13 h -26 v -48 q 0,-6.5 -4.75,-11.25 -4.75,-4.75 -11.25,-4.75 H 336 q -6.5,0 -11.25,4.75 Q 320,169.5 320,176 v 48 h -26 q -4,0 -5.5,7.25 -1.5,7.25 2.5,11.75 l 67.5,72.5 q 4,4.5 9.5,4.5 5.5,0 9.5,-4.5 L 445.00002,243 q 4,-4.5 2.5,-11.75 -1.5,-7.25 -5.50001,-7.25 z M 23,22 Q 26.5,12.5 37,6.25 47.5,0 59,0 H 179 Q 191,0 201.5,6.25 212,12.5 216,22 l 24,42 H 0 Z"
     fill="currentColor"
     id="path2"
     style="fill:#eeeeec;fill-opacity:1;stroke-width:0.5" />
  <g
     id="g4950">
    <path
       style="fill:#555555;fill-opacity:1;stroke:#ff0000;stroke-width:0;stroke-linecap:round;stroke-linejoin:round;stroke-dasharray:none;stroke-opacity:1;paint-order:stroke markers fill"
       d="M 384,256 A 128,128 0 0 0 256,384 128,128 0 0 0 384,512 128,128 0 0 0 512,384 128,128 0 0 0 384,256 Z"
       id="path4605-3" />
    <g
       style="fill:#eeeeec;fill-opacity:1"
       id="g877"
       transform="matrix(14.377568,0,0,14.377568,268.98352,274.87763)">
      <path
         d="M 15.384,6.115 A 0.485,0.485 0 0 0 15.337,5.379 12.44,12.44 0 0 0 8,3 C 5.259,3 2.723,3.882 0.663,5.379 A 0.485,0.485 0 0 0 0.615,6.115 0.52,0.52 0 0 0 1.283,6.165 11.45,11.45 0 0 1 8,4 c 2.507,0 4.827,0.802 6.716,2.164 0.205,0.148 0.49,0.13 0.668,-0.049"
         id="path865"
         style="fill:#eeeeec;fill-opacity:1" />
      <path
         d="M 13.229,8.271 A 0.482,0.482 0 0 0 13.166,7.526 9.46,9.46 0 0 0 8,6 C 6.095,6 4.32,6.56 2.834,7.526 A 0.48,0.48 0 0 0 2.771,8.271 0.525,0.525 0 0 0 3.423,8.336 8.46,8.46 0 0 1 8,7 8.46,8.46 0 0 1 12.576,8.336 c 0.206,0.132 0.48,0.108 0.653,-0.065 m -2.183,2.183 c 0.226,-0.226 0.185,-0.605 -0.1,-0.75 A 6.5,6.5 0 0 0 8,9 C 6.94,9 5.938,9.254 5.054,9.704 c -0.285,0.145 -0.326,0.524 -0.1,0.75 l 0.015,0.015 c 0.16,0.16 0.407,0.19 0.611,0.09 A 5.5,5.5 0 0 1 8,10 c 0.868,0 1.69,0.201 2.42,0.56 0.203,0.1 0.45,0.07 0.61,-0.091 z M 9.06,12.44 C 9.256,12.244 9.258,11.92 9.02,11.78 A 2,2 0 0 0 8,11.5 2,2 0 0 0 6.98,11.78 c -0.238,0.14 -0.236,0.464 -0.04,0.66 l 0.706,0.706 a 0.5,0.5 0 0 0 0.707,0 L 9.06,12.439 Z"
         id="path867"
         style="fill:#eeeeec;fill-opacity:1" />
    </g>
    <circle
       style="color:#eeeeec;opacity:0.3;fill:#00ff00;fill-opacity:1;stroke:#d2b7b7;stroke-width:0;paint-order:stroke markers fill"
       id="path477"
       cx="384"
       cy="384"
       r="128" />
  </g>
</svg>
