<?xml version="1.0" encoding="UTF-8" standalone="no"?>
<svg
   version="1.1"
   width="512px"
   height="512px"
   id="svg4"
   sodipodi:docname="toggled-ssh.svg"
   inkscape:version="1.2.2 (b0a8486541, 2022-12-01)"
   xmlns:inkscape="http://www.inkscape.org/namespaces/inkscape"
   xmlns:sodipodi="http://sodipodi.sourceforge.net/DTD/sodipodi-0.dtd"
   xmlns="http://www.w3.org/2000/svg"
   xmlns:svg="http://www.w3.org/2000/svg">
  <defs
     id="defs8" />
  <sodipodi:namedview
     id="namedview6"
     pagecolor="#ffffff"
     bordercolor="#111111"
     borderopacity="1"
     inkscape:showpageshadow="0"
     inkscape:pageopacity="0"
     inkscape:pagecheckerboard="1"
     inkscape:deskcolor="#d1d1d1"
     showgrid="false"
     inkscape:zoom="0.7071068"
     inkscape:cx="406.58639"
     inkscape:cy="117.37972"
     inkscape:window-width="2560"
     inkscape:window-height="1380"
     inkscape:window-x="1920"
     inkscape:window-y="0"
     inkscape:window-maximized="1"
     inkscape:current-layer="svg4" />
  <path
     id="path2"
     style="fill:#eeeeec;stroke-width:0.954703;fill-opacity:1"
     d="M 36.572266 56 C 16.372386 56 0 70.922641 0 89.333984 L 0 422.66602 C 0 441.07733 16.372386 456 36.572266 456 L 475.42773 456 C 495.62763 456 512 441.07733 512 422.66602 L 512 89.333984 C 512 70.922641 495.62763 56 475.42773 56 L 36.572266 56 z M 418.9043 85.947266 C 442.86342 85.947266 462.36133 105.44516 462.36133 129.4043 L 462.36133 149.99023 L 469.22266 149.99023 C 476.79923 149.99023 482.94727 156.13827 482.94727 163.71484 L 482.94727 218.60742 C 482.94727 226.18399 476.79923 232.33203 469.22266 232.33203 L 368.58398 232.33203 C 361.00741 232.33203 354.85938 226.18399 354.85938 218.60742 L 354.85938 163.71484 C 354.85938 156.13827 361.00741 149.99023 368.58398 149.99023 L 375.44531 149.99023 L 375.44531 129.4043 C 375.44531 105.44516 394.94516 85.947266 418.9043 85.947266 z M 418.9043 108.82031 C 407.55373 108.82031 398.31836 118.05373 398.31836 129.4043 L 398.31836 149.99023 L 439.48828 149.99023 L 439.48828 129.4043 C 439.48828 118.05373 430.25486 108.82031 418.9043 108.82031 z M 92.642578 124.32422 L 237.10938 256 L 92.642578 387.67578 L 44.488281 343.7832 L 140.79883 256 L 44.488281 168.21484 L 92.642578 124.32422 z M 237.10938 343.7832 L 429.73047 343.7832 L 429.73047 387.67578 L 237.10938 387.67578 L 237.10938 343.7832 z " />
</svg>
