<?xml version="1.0" encoding="UTF-8" standalone="no"?>
<svg
   version="1.1"
   width="512px"
   height="512px"
   id="svg4"
   sodipodi:docname="toggled-ssh.svg"
   inkscape:version="1.2.2 (b0a8486541, 2022-12-01)"
   xml:space="preserve"
   xmlns:inkscape="http://www.inkscape.org/namespaces/inkscape"
   xmlns:sodipodi="http://sodipodi.sourceforge.net/DTD/sodipodi-0.dtd"
   xmlns="http://www.w3.org/2000/svg"
   xmlns:svg="http://www.w3.org/2000/svg"><defs
     id="defs8" /><sodipodi:namedview
     id="namedview6"
     pagecolor="#ffffff"
     bordercolor="#111111"
     borderopacity="1"
     inkscape:showpageshadow="0"
     inkscape:pageopacity="0"
     inkscape:pagecheckerboard="1"
     inkscape:deskcolor="#d1d1d1"
     showgrid="false"
     inkscape:zoom="1.4142136"
     inkscape:cx="-63.639609"
     inkscape:cy="352.13917"
     inkscape:window-width="2560"
     inkscape:window-height="1380"
     inkscape:window-x="1920"
     inkscape:window-y="0"
     inkscape:window-maximized="1"
     inkscape:current-layer="svg4" /><path
     d="M 457.14283,64 H 54.857115 C 23.771405,64 -2.5e-5,87.77143 -2.5e-5,118.85714 V 393.14286 C -2.5e-5,424.22857 23.771405,448 54.857115,448 H 457.14283 c 31.08569,0 54.8572,-23.77143 54.8572,-54.85714 V 118.85714 C 512.00003,87.77143 488.22852,64 457.14283,64 Z m -298.05715,177.37143 -54.85713,54.85714 c -3.65714,3.65714 -7.314285,5.48572 -12.800005,5.48572 -5.48571,0 -9.14286,-1.82858 -12.8,-5.48572 -7.31428,-7.31428 -7.31428,-18.28571 0,-25.6 L 120.68569,228.57143 78.628545,186.51429 c -7.31428,-7.31429 -7.31428,-18.28572 0,-25.6 7.31429,-7.31429 18.28572,-7.31429 25.599995,0 l 54.85714,54.85714 c 7.31429,7.31428 7.31429,18.28571 0,25.6 z m 115.2,60.34286 h -73.14285 c -10.97143,0 -18.28572,-7.31429 -18.28572,-18.28572 0,-10.97143 7.31429,-18.28571 18.28572,-18.28571 h 73.14285 c 10.97143,0 18.28573,7.31428 18.28573,18.28571 0,10.97143 -7.31429,18.28572 -18.28573,18.28572 z"
     id="path3476"
     style="fill:#eeeeec;fill-opacity:1;stroke-width:18.2857" /><path
     style="fill:#555555;fill-opacity:1;stroke:#ff0000;stroke-width:0;stroke-linecap:round;stroke-linejoin:round;stroke-dasharray:none;stroke-opacity:1;paint-order:stroke markers fill"
     d="M 384,256 A 128,128 0 0 0 256,384 128,128 0 0 0 384,512 128,128 0 0 0 512,384 128,128 0 0 0 384,256 Z"
     id="path4605-3" /><path
     d="m 478.40977,346.51875 c -20.66333,-20.66333 -54.29917,-20.66333 -74.96251,0 -4.09647,4.10778 -7.03755,9.13065 -9.58993,14.32389 H 291.00351 a 4.4176498,4.4176498 0 0 0 -3.12344,1.29329 l -12.49375,12.49375 a 4.4176498,4.4176498 0 0 0 0,6.24688 l 18.74063,18.74064 a 4.4176498,4.4176498 0 0 0 3.12343,1.2933 h 10.66361 l 11.20045,11.20045 a 4.4176498,4.4176498 0 0 0 6.24688,0 l 9.37032,-9.37032 9.37031,9.37031 a 4.4176498,4.4176498 0 0 0 6.24688,0 l 11.20045,-11.20045 30.08748,1e-5 c 2.60245,7.57107 6.12629,14.86165 11.7983,20.55855 a 4.4176498,4.4176498 0 0 0 0.0122,0.0122 c 20.66334,20.66333 54.29918,20.66333 74.96251,0 20.66333,-20.66333 20.66333,-54.29917 -10e-6,-74.9625 z m -6.24687,6.24687 c 17.28726,17.28727 17.28726,45.18151 0,62.46877 -17.28311,17.28311 -45.16835,17.28697 -62.45657,0.0122 -5.48335,-5.50711 -9.42163,-12.36196 -11.40786,-19.8753 a 4.4176498,4.4176498 0 0 0 -4.27035,-3.29422 l -34.30898,-4e-5 a 4.4176498,4.4176498 0 0 0 -3.12344,1.29329 l -9.37031,9.37031 -9.37032,-9.37032 a 4.4176498,4.4176498 0 0 0 -6.24688,0 l -9.37031,9.37032 -9.37032,-9.37031 a 4.4176498,4.4176498 0 0 0 -3.12342,-1.29329 h -10.66362 l -14.3239,-14.3239 8.07702,-8.07702 103.29307,2e-5 a 4.4176498,4.4176498 0 0 0 4.07512,-2.70861 c 2.21108,-5.30515 5.43392,-10.13213 9.49231,-14.20189 17.28726,-17.28726 45.18149,-17.28726 62.46876,0 z m -10e-6,12.49375 c -6.86311,-6.8631 -18.12438,-6.8631 -24.98749,1e-5 -6.86312,6.86312 -6.86312,18.12438 0,24.9875 6.86311,6.86311 18.12438,6.86311 24.98749,-10e-6 6.86312,-6.86311 6.86312,-18.12437 0,-24.9875 z m -6.24687,6.24689 c 3.48705,3.48705 3.48705,9.00668 -10e-6,12.49373 -3.48705,3.48706 -9.00668,3.48707 -12.49374,0 -3.48704,-3.48704 -3.48705,-9.00668 0,-12.49374 3.48706,-3.48705 9.00669,-3.48705 12.49375,10e-6 z"
     style="fill:#eeeeec;fill-opacity:1;stroke:none;stroke-width:0px"
     id="path3055" /></svg>
