<?xml version="1.0" encoding="UTF-8" standalone="no"?>
<svg
   version="1.1"
   width="512px"
   height="512px"
   id="svg4"
   sodipodi:docname="toggled-bluetooth-on.svg"
   inkscape:version="1.2.2 (b0a8486541, 2022-12-01)"
   xml:space="preserve"
   xmlns:inkscape="http://www.inkscape.org/namespaces/inkscape"
   xmlns:sodipodi="http://sodipodi.sourceforge.net/DTD/sodipodi-0.dtd"
   xmlns="http://www.w3.org/2000/svg"
   xmlns:svg="http://www.w3.org/2000/svg"><defs
     id="defs8" /><sodipodi:namedview
     id="namedview6"
     pagecolor="#ffffff"
     bordercolor="#111111"
     borderopacity="1"
     inkscape:showpageshadow="0"
     inkscape:pageopacity="0"
     inkscape:pagecheckerboard="1"
     inkscape:deskcolor="#d1d1d1"
     showgrid="false"
     inkscape:zoom="1.2111966"
     inkscape:cx="36.740526"
     inkscape:cy="345.93888"
     inkscape:window-width="2560"
     inkscape:window-height="1380"
     inkscape:window-x="1920"
     inkscape:window-y="0"
     inkscape:window-maximized="1"
     inkscape:current-layer="svg4"
     showguides="false" /><g
     style="fill:#eeeeec;fill-opacity:1"
     id="g305"
     transform="matrix(25.6,0,0,25.6,-51.2,-51.2)"><g
       fill="#292d32"
       id="g293"
       style="fill:#eeeeec;fill-opacity:1"><path
         d="m 12.9004,10.5919 1.67,-1.53002 -1.67,-1.39 z"
         id="path287"
         style="fill:#eeeeec;fill-opacity:1" /><path
         d="m 12.9004,16.3302 1.67,-1.39 -1.67,-1.53 z"
         id="path289"
         style="fill:#eeeeec;fill-opacity:1" /><path
         d="M 12,2 C 6.48,2 2,6.48 2,12 2,17.52 6.48,22 12,22 17.52,22 22,17.52 22,12 22,6.48 17.52,2 12,2 Z m 3.72,11.95 c 0.29,0.27 0.45,0.64 0.44,1.02 -0.01,0.38 -0.19,0.75 -0.49,1 L 13.6,17.7 c -0.38,0.32 -0.73,0.41 -1,0.41 -0.22,0 -0.39,-0.06 -0.49,-0.1 -0.22,-0.1 -0.72,-0.43 -0.72,-1.34 V 14 l -2.3,2.11 C 8.79,16.39 8.31,16.37 8.03,16.06 7.75,15.75 7.77,15.28 8.08,15 L 11.36,12 8.08,8.99 C 7.78,8.71 7.76,8.24 8.04,7.93 8.32,7.63 8.8,7.6 9.1,7.88 L 11.4,10 V 7.33 c 0,-0.9 0.5,-1.23 0.72,-1.34 0.21,-0.1 0.79,-0.27 1.49,0.3 l 2.06,1.72 c 0.3,0.25 0.48,0.62 0.49,1 0.01,0.38 -0.15,0.76 -0.44,1.02 L 13.58,12 Z"
         id="path291"
         style="fill:#eeeeec;fill-opacity:1" /></g></g><circle
     style="color:#eeeeec;opacity:0.6;fill:#00ff00;fill-opacity:1;stroke:#d2b7b7;stroke-width:0;paint-order:stroke markers fill"
     id="path477"
     cx="384"
     cy="384"
     r="128" /></svg>
