<?xml version="1.0" encoding="UTF-8" standalone="no"?>
<svg
   version="1.1"
   width="512px"
   height="512px"
   id="svg4"
   sodipodi:docname="dlna-switch-on.svg"
   inkscape:version="1.2.2 (b0a8486541, 2022-12-01)"
   xmlns:inkscape="http://www.inkscape.org/namespaces/inkscape"
   xmlns:sodipodi="http://sodipodi.sourceforge.net/DTD/sodipodi-0.dtd"
   xmlns="http://www.w3.org/2000/svg"
   xmlns:svg="http://www.w3.org/2000/svg">
  <defs
     id="defs8" />
  <sodipodi:namedview
     id="namedview6"
     pagecolor="#ffffff"
     bordercolor="#111111"
     borderopacity="1"
     inkscape:showpageshadow="0"
     inkscape:pageopacity="0"
     inkscape:pagecheckerboard="1"
     inkscape:deskcolor="#d1d1d1"
     showgrid="false"
     inkscape:zoom="1.2111966"
     inkscape:cx="139.11862"
     inkscape:cy="344.70044"
     inkscape:window-width="1920"
     inkscape:window-height="1056"
     inkscape:window-x="0"
     inkscape:window-y="323"
     inkscape:window-maximized="1"
     inkscape:current-layer="svg4"
     showguides="false" />
  <path
     d="M 496.10667,272.12694 H 277.76 c -22.44267,0 -44.8,11.82319 -57.45067,30.60974 v -0.41103 a 69.12,78.337741 0 0 1 -56.08533,32.71326 69.354667,78.603702 0 0 1 0,-157.2074 c 23.14667,0 43.52,12.95957 56.10667,32.71326 v -0.31432 c 12.608,18.76237 34.98666,30.77899 57.42933,30.77899 h 216.08533 c 3.968,-0.12089 18.624,-2.29694 18.09067,-23.71892 C 493.07733,94.319607 386.496,0 257.57867,0 178.176,0 107.22133,35.783906 59.968,91.950132 52.373333,104.6921 60.266667,108.60899 67.434667,109.69702 H 208.42667 c 22.4,0 44.8,-12.040805 57.42933,-30.875713 v 0.43521 a 69.162667,78.386097 0 0 1 56.10667,-32.761617 69.376,78.627881 0 0 1 0,157.23158 69.12,78.337741 0 0 1 -56.10667,-32.76161 v 0.45938 C 253.22667,152.56517 230.82667,140.81451 208.42667,140.81451 H 54.4 l 0.597333,0.0725 c 0,0 -22.784,-1.4507 -36.672,20.76917 C 7.7013333,181.04722 0,222.63393 0,256.04836 c 0,33.5595 4.224,64.07253 18.496,94.85153 12.032,21.95391 36.48,20.55156 36.48,20.55156 l -0.896,0.1209 h 154.304 c 22.4,0 44.8,-11.84738 57.42933,-30.65811 v 0.48357 a 69.162667,78.386097 0 0 1 56.10667,-32.7858 69.35467,78.603705 0 0 1 0,157.20741 69.162667,78.386097 0 0 1 -56.10667,-32.73744 v 0.43521 C 253.184,414.68228 230.784,402.64148 208.384,402.64148 H 67.498667 C 60.501333,403.65697 52.608,407.42879 59.413333,419.5663 106.688,476.04685 177.92,512 257.57867,512 386.73067,512 493.44,417.46279 512,294.17756 511.9147,276.93842 501.568,272.97318 496.10667,272.12694"
     fill="#eeeeec"
     id="path731"
     style="color:#eeeeec;fill:#eeeeec;fill-opacity:1;stroke-width:22.7113" />
  <circle
     style="color:#eeeeec;opacity:0.6;fill:#00ff00;fill-opacity:1;stroke:#d2b7b7;stroke-width:0;paint-order:stroke markers fill"
     id="path477"
     cx="384"
     cy="384"
     r="127.99999" />
</svg>
