<?xml version="1.0" encoding="UTF-8" standalone="no"?>
<svg
   height="16px"
   viewBox="0 0 16 16"
   width="16px"
   version="1.1"
   id="svg4"
   sodipodi:docname="toggled-vpn.svg"
   inkscape:version="1.2.2 (b0a8486541, 2022-12-01)"
   xmlns:inkscape="http://www.inkscape.org/namespaces/inkscape"
   xmlns:sodipodi="http://sodipodi.sourceforge.net/DTD/sodipodi-0.dtd"
   xmlns="http://www.w3.org/2000/svg"
   xmlns:svg="http://www.w3.org/2000/svg">
  <defs
     id="defs8" />
  <sodipodi:namedview
     id="namedview6"
     pagecolor="#ffffff"
     bordercolor="#111111"
     borderopacity="1"
     inkscape:showpageshadow="0"
     inkscape:pageopacity="0"
     inkscape:pagecheckerboard="1"
     inkscape:deskcolor="#d1d1d1"
     showgrid="false"
     inkscape:zoom="37.078912"
     inkscape:cx="5.3399625"
     inkscape:cy="8.3200931"
     inkscape:window-width="1920"
     inkscape:window-height="1027"
     inkscape:window-x="0"
     inkscape:window-y="29"
     inkscape:window-maximized="1"
     inkscape:current-layer="svg4" />
  <path
     d="m 1.53125,1.469 -1.0625,1.0625 14,14 1.0625,-1.0625 L 12,11.93775 v -5.9375 h -1 v -1 c 0,-1.660156 -1.339844,-3 -3,-3 -1.640625,0 -2.964844,1.308594 -2.996094,2.941406 z M 8,4.00025 c 0.554688,0 1,0.445312 1,1 v 1 H 7 v -1 c 0,-0.554688 0.445312,-1 1,-1 z M 4,8.058844 v 3.941406 h 3 v 2 H 2 v 2 h 9.941406 l -2,-2 H 9 v -0.941406 z m 0,0"
     fill="#2e3436"
     id="path2"
     style="fill:#eeeeec;fill-opacity:1" />
  <path
     style="fill:#555555;fill-opacity:1;stroke:#ff0000;stroke-width:0;stroke-linecap:round;stroke-linejoin:round;stroke-dasharray:none;stroke-opacity:1;paint-order:stroke markers fill"
     d="m 12,8 a 4,4 0 0 0 -4,4 4,4 0 0 0 4,4 4,4 0 0 0 4,-4 4,4 0 0 0 -4,-4 z"
     id="path4605-3" />
  <path
     d="m 14.950305,10.828711 c -0.645729,-0.645729 -1.696849,-0.645729 -2.342578,0 -0.128015,0.128368 -0.219924,0.285333 -0.299685,0.447621 H 9.0938597 a 0.13805156,0.13805156 0 0 0 -0.097607,0.04042 L 8.605823,11.707177 a 0.13805156,0.13805156 0 0 0 0,0.195215 l 0.5856447,0.585645 a 0.13805156,0.13805156 0 0 0 0.097607,0.04042 h 0.3332378 l 0.350014,0.350014 a 0.13805156,0.13805156 0 0 0 0.1952145,0 l 0.292823,-0.292822 0.292822,0.292822 a 0.13805156,0.13805156 0 0 0 0.195215,0 l 0.350014,-0.350014 h 0.940234 c 0.08133,0.236596 0.191446,0.464427 0.368697,0.642455 a 0.13805156,0.13805156 0 0 0 3.81e-4,3.81e-4 c 0.645729,0.645729 1.696849,0.645729 2.342578,0 0.645729,-0.645729 0.645729,-1.696849 0,-2.342578 z m -0.195214,0.195215 c 0.540226,0.540227 0.540226,1.411922 0,1.952149 -0.540098,0.540097 -1.411511,0.540217 -1.951768,3.81e-4 -0.171355,-0.172097 -0.294426,-0.386311 -0.356496,-0.621103 a 0.13805156,0.13805156 0 0 0 -0.133448,-0.102945 l -1.072156,-1e-6 a 0.13805156,0.13805156 0 0 0 -0.09761,0.04041 L 10.85079,12.58564 10.557968,12.292817 a 0.13805156,0.13805156 0 0 0 -0.195215,0 L 10.069931,12.58564 9.7771082,12.292817 a 0.13805156,0.13805156 0 0 0 -0.097607,-0.04041 h -0.333235 l -0.4476218,-0.447622 0.2524069,-0.252407 3.2279087,1e-6 a 0.13805156,0.13805156 0 0 0 0.127347,-0.08464 c 0.0691,-0.165786 0.16981,-0.316629 0.296635,-0.443809 0.540227,-0.540227 1.411921,-0.540227 1.952149,0 z m -1e-6,0.390429 c -0.214472,-0.214472 -0.566387,-0.214472 -0.780859,10e-7 -0.214472,0.214472 -0.214472,0.566386 0,0.780859 0.214472,0.214472 0.566387,0.214472 0.780859,0 0.214473,-0.214473 0.214473,-0.566387 0,-0.78086 z m -0.195214,0.195216 c 0.10897,0.10897 0.10897,0.281458 -10e-7,0.390429 -0.10897,0.10897 -0.281458,0.108971 -0.390429,0 -0.10897,-0.10897 -0.10897,-0.281459 0,-0.39043 0.108971,-0.10897 0.281459,-0.10897 0.39043,1e-6 z"
     style="fill:#eeeeec;fill-opacity:1;stroke:none;stroke-width:0px"
     id="path3055" />
</svg>
