<?xml version="1.0" encoding="UTF-8" standalone="no"?>
<svg
   version="1.1"
   width="512px"
   height="512px"
   id="svg4"
   sodipodi:docname="toggled-bluetooth-off.svg"
   inkscape:version="1.2.2 (b0a8486541, 2022-12-01)"
   xml:space="preserve"
   xmlns:inkscape="http://www.inkscape.org/namespaces/inkscape"
   xmlns:sodipodi="http://sodipodi.sourceforge.net/DTD/sodipodi-0.dtd"
   xmlns="http://www.w3.org/2000/svg"
   xmlns:svg="http://www.w3.org/2000/svg"><defs
     id="defs8" /><sodipodi:namedview
     id="namedview6"
     pagecolor="#ffffff"
     bordercolor="#111111"
     borderopacity="1"
     inkscape:showpageshadow="0"
     inkscape:pageopacity="0"
     inkscape:pagecheckerboard="1"
     inkscape:deskcolor="#d1d1d1"
     showgrid="false"
     inkscape:zoom="1.2111966"
     inkscape:cx="232.00197"
     inkscape:cy="260.07339"
     inkscape:window-width="2560"
     inkscape:window-height="1380"
     inkscape:window-x="1920"
     inkscape:window-y="0"
     inkscape:window-maximized="1"
     inkscape:current-layer="svg4"
     showguides="false" /><g
     id="g249"
     style="fill:#eeeeec;fill-opacity:1">
	<polygon
   class="st0"
   points="276.568,386.375 316.112,346.099 276.568,305.59 "
   id="polygon243"
   style="fill:#eeeeec;fill-opacity:1" />
	<polygon
   class="st0"
   points="276.568,207.854 316.112,167.33 276.568,127.053 "
   id="polygon245"
   style="fill:#eeeeec;fill-opacity:1" />
	<path
   class="st0"
   d="M 409.45,78.174 C 380.566,30.447 344.172,0 255.996,0 167.82,0 131.426,30.447 102.55,78.174 71.632,129.254 67.63,203.238 67.63,256 c 0,52.761 4.002,126.747 34.92,177.833 28.876,47.728 65.27,78.167 153.446,78.167 88.176,0 124.57,-30.439 153.453,-78.167 C 440.36,382.747 444.37,308.762 444.37,256 c 0,-52.762 -4.01,-126.746 -34.92,-177.826 z M 164.536,376.546 137.59,350.244 228.878,256.719 137.59,163.187 164.536,136.885 238.918,213.1 V 34.972 l 129.888,132.276 -87.315,89.47 87.315,89.455 -129.888,132.283 V 300.338 Z"
   id="path247"
   style="fill:#eeeeec;fill-opacity:1" />
</g><path
     style="fill:#555555;fill-opacity:1;stroke:#ff0000;stroke-width:0;stroke-linecap:round;stroke-linejoin:round;stroke-dasharray:none;stroke-opacity:1;paint-order:stroke markers fill"
     d="M 384,256 A 128,128 0 0 0 256,384 128,128 0 0 0 384,512 128,128 0 0 0 512,384 128,128 0 0 0 384,256 Z"
     id="path4605-3" /><polygon
     style="fill:#eeeeec;fill-opacity:1"
     points="28.284,378.302 189.151,217.436 350.017,378.302 378.302,350.018 217.435,189.151 378.302,28.284 350.017,0 189.151,160.867 28.284,0 0,28.284 160.866,189.151 0,350.018 "
     id="polygon897"
     transform="matrix(0.38875909,0,0,0.38875909,310.46583,310.46583)" /><circle
     style="color:#eeeeec;opacity:0.3;fill:#ff0000;fill-opacity:1;stroke:#d2b7b7;stroke-width:0;paint-order:stroke markers fill"
     id="path477"
     cx="384"
     cy="384"
     r="128" /><style
     type="text/css"
     id="style241">
	.st0{fill:#000000;}
</style></svg>
